<svg width="23" height="15" viewBox="0 0 23 15" fill="none" xmlns="http://www.w3.org/2000/svg">
<path d="M8.18101 8.7213H11.691C11.3728 9.62624 10.7716 10.4047 9.97652 10.9413C9.18144 11.478 8.23468 11.7444 7.27639 11.7011C6.31811 11.6578 5.39923 11.3072 4.65577 10.701C3.91231 10.0948 3.38379 9.26534 3.14844 8.33539C2.91309 7.40545 2.98342 6.42444 3.34902 5.53758C3.71462 4.65072 4.35605 3.90514 5.17838 3.41121C6.00071 2.91729 6.96021 2.70126 7.91488 2.79511C8.86954 2.88896 9.76861 3.2877 10.479 3.93231C10.5685 4.01524 10.686 4.06132 10.808 4.06132C10.93 4.06132 11.0475 4.01524 11.137 3.93231L12.427 2.7183C12.4746 2.67326 12.5125 2.619 12.5384 2.55882C12.5643 2.49864 12.5776 2.43382 12.5776 2.36831C12.5776 2.30279 12.5643 2.23797 12.5384 2.17779C12.5125 2.11761 12.4746 2.06335 12.427 2.01831C11.1292 0.785202 9.41689 0.0824418 7.62701 0.0483059C6.2157 0.0201578 4.82729 0.407833 3.63471 1.16304C2.44213 1.91826 1.49809 3.00763 0.920149 4.29548C0.34221 5.58334 0.155923 7.01276 0.384488 8.40573C0.613054 9.79869 1.24637 11.0936 2.20556 12.1293C3.16475 13.1649 4.40742 13.8955 5.77881 14.23C7.15019 14.5645 8.58969 14.4881 9.918 14.0104C11.2463 13.5328 12.4047 12.6749 13.249 11.5436C14.0933 10.4123 14.5861 9.05763 14.666 7.6483C14.672 7.6013 14.675 5.9973 14.675 5.9973H8.18101C8.05317 5.9973 7.93058 6.04809 7.84018 6.13848C7.74979 6.22887 7.69901 6.35147 7.69901 6.47931V8.2463C7.70085 8.37292 7.75244 8.49373 7.84263 8.58261C7.93283 8.6715 8.05438 8.72132 8.18101 8.7213Z" fill="white"/>
<path d="M20.727 7.34697V5.71397C20.727 5.60789 20.6849 5.50615 20.6099 5.43114C20.5348 5.35612 20.4331 5.31396 20.327 5.31396H18.952C18.8459 5.31396 18.7442 5.35612 18.6692 5.43114C18.5942 5.50615 18.552 5.60789 18.552 5.71397V7.34697H16.92C16.814 7.34697 16.7122 7.38911 16.6372 7.46413C16.5622 7.53914 16.52 7.64089 16.52 7.74698V9.12198C16.52 9.22807 16.5622 9.3298 16.6372 9.40482C16.7122 9.47983 16.814 9.52197 16.92 9.52197H18.553V11.155C18.553 11.2611 18.5952 11.3628 18.6702 11.4378C18.7452 11.5128 18.8469 11.555 18.953 11.555H20.328C20.4341 11.555 20.5359 11.5128 20.6109 11.4378C20.6859 11.3628 20.728 11.2611 20.728 11.155V9.52197H22.36C22.4661 9.52197 22.5679 9.47983 22.6429 9.40482C22.7179 9.3298 22.76 9.22807 22.76 9.12198V7.74698C22.76 7.64089 22.7179 7.53914 22.6429 7.46413C22.5679 7.38911 22.4661 7.34697 22.36 7.34697H20.727Z" fill="white"/>
</svg>
