<svg width="20" height="20" viewBox="0 0 20 20" fill="none" xmlns="http://www.w3.org/2000/svg">
<path d="M18.0586 3.34912L18.0586 3.34911C17.288 2.59664 16.1899 2.17853 14.665 2.17853C14.2918 2.17853 13.901 2.24307 13.4904 2.3799L18.0586 3.34912ZM18.0586 3.34912C18.8259 4.09832 19.25 5.1654 19.25 6.65165C19.25 8.01933 18.5438 9.51221 16.9188 11.1386L10.0001 17.802L3.06545 11.1116L3.04019 11.0872L3.01278 11.0653C2.97641 11.0363 2.90068 10.9671 2.77553 10.8385C2.67274 10.7325 2.48586 10.5142 2.20404 10.1619L2.20401 10.1619C1.94137 9.83356 1.70771 9.49825 1.50259 9.15636L1.50258 9.15634C1.31446 8.84281 1.13635 8.44577 0.974383 7.9562L0.974357 7.95612C0.821811 7.49521 0.75 7.0613 0.75 6.65167C0.75 5.16538 1.17405 4.09831 1.94136 3.34914L1.94138 3.34911M18.0586 3.34912L1.94138 3.34911M12.3265 2.94228L12.326 2.94259C11.9276 3.2044 11.5923 3.44562 11.3168 3.66582C11.0407 3.88682 10.7784 4.12146 10.5303 4.36956L10.0001 4.89966L9.46982 4.36967C9.22153 4.12152 8.95943 3.88695 8.68346 3.66607L12.3265 2.94228ZM12.3265 2.94228C12.6832 2.70746 13.0706 2.51983 13.4903 2.37993L12.3265 2.94228ZM7.67375 2.94244L7.67366 2.94238C7.31654 2.70744 6.92918 2.51992 6.50954 2.37995L7.67375 2.94244ZM7.67375 2.94244C8.07254 3.20471 8.40794 3.44581 8.68318 3.66585L7.67375 2.94244ZM1.94138 3.34911C2.71189 2.59674 3.81003 2.17853 5.33476 2.17853C5.70794 2.17853 6.09856 2.24307 6.50929 2.37987L1.94138 3.34911Z" stroke="#CCCCCC" stroke-width="1.5"/>
</svg>
