<svg width="19" height="19" viewBox="0 0 19 19" fill="none" xmlns="http://www.w3.org/2000/svg">
<path d="M13.173 0.254883H5.892C4.46934 0.256471 3.1054 0.822326 2.09942 1.8283C1.09344 2.83428 0.527589 4.19822 0.526001 5.62088V12.9019C0.527589 14.3245 1.09344 15.6885 2.09942 16.6945C3.1054 17.7004 4.46934 18.2663 5.892 18.2679H13.173C14.5957 18.2663 15.9596 17.7004 16.9656 16.6945C17.9716 15.6885 18.5374 14.3245 18.539 12.9019V5.62088C18.5374 4.19822 17.9716 2.83428 16.9656 1.8283C15.9596 0.822326 14.5957 0.256471 13.173 0.254883ZM16.726 12.9019C16.7257 13.8441 16.3513 14.7477 15.6851 15.4139C15.0188 16.0802 14.1152 16.4546 13.173 16.4549H5.892C4.94942 16.4549 4.04545 16.0804 3.37894 15.4139C2.71244 14.7474 2.338 13.8435 2.338 12.9009V5.62088C2.338 4.6783 2.71244 3.77433 3.37894 3.10783C4.04545 2.44132 4.94942 2.06688 5.892 2.06688H13.173C14.1154 2.06715 15.0191 2.4417 15.6854 3.10818C16.3517 3.77465 16.726 4.67848 16.726 5.62088V12.9019Z" fill="white"/>
<path d="M9.53303 5.11279C8.71244 5.11279 7.91026 5.35613 7.22796 5.81203C6.54566 6.26793 6.01388 6.91591 5.69986 7.67404C5.38583 8.43217 5.30367 9.2664 5.46376 10.0712C5.62385 10.8761 6.01899 11.6153 6.59924 12.1956C7.17949 12.7758 7.91877 13.171 8.7236 13.3311C9.52843 13.4912 10.3627 13.409 11.1208 13.095C11.8789 12.7809 12.5269 12.2491 12.9828 11.5668C13.4387 10.8845 13.682 10.0824 13.682 9.2618C13.681 8.16174 13.2435 7.10704 12.4656 6.32918C11.6878 5.55132 10.6331 5.11385 9.53303 5.11279ZM9.53303 11.7968C9.03166 11.7968 8.54154 11.6481 8.12466 11.3696C7.70778 11.091 7.38286 10.6951 7.19099 10.2319C6.99912 9.76869 6.94892 9.25898 7.04673 8.76724C7.14455 8.2755 7.386 7.82381 7.74052 7.46928C8.09505 7.11476 8.54674 6.87331 9.03848 6.7755C9.53022 6.67768 10.0399 6.72789 10.5031 6.91975C10.9664 7.11162 11.3623 7.43655 11.6408 7.85342C11.9194 8.2703 12.068 8.76042 12.068 9.2618C12.068 9.93412 11.8009 10.5789 11.3255 11.0543C10.8501 11.5297 10.2054 11.7968 9.53303 11.7968Z" fill="white"/>
<path d="M14.123 5.9608C14.8117 5.9608 15.37 5.4025 15.37 4.7138C15.37 4.0251 14.8117 3.4668 14.123 3.4668C13.4343 3.4668 12.876 4.0251 12.876 4.7138C12.876 5.4025 13.4343 5.9608 14.123 5.9608Z" fill="white"/>
</svg>
