<svg width="15" height="19" viewBox="0 0 15 19" fill="none" xmlns="http://www.w3.org/2000/svg">
<path d="M7.98397 0.445312C3.11497 0.445312 0.521973 3.56531 0.521973 6.96731C0.521973 8.54531 1.40397 10.5123 2.81497 11.1373C3.02897 11.2373 3.14597 11.1933 3.19397 10.9943C3.23597 10.8433 3.42197 10.1163 3.51197 9.77331C3.52798 9.71971 3.52938 9.6628 3.51601 9.60847C3.50265 9.55415 3.47502 9.50438 3.43597 9.46431C2.89369 8.76052 2.59815 7.89779 2.59497 7.00931C2.6083 6.36271 2.75254 5.72552 3.01898 5.13622C3.28542 4.54691 3.66853 4.01772 4.14519 3.5806C4.62184 3.14349 5.18214 2.80751 5.79226 2.59296C6.40237 2.37841 7.04964 2.28974 7.69497 2.33231C10.471 2.33231 12.413 4.13231 12.413 6.71531C12.413 9.63031 10.871 11.6463 8.86597 11.6463C8.61642 11.6664 8.36564 11.6272 8.13411 11.532C7.90258 11.4367 7.69685 11.288 7.53373 11.0981C7.37061 10.9081 7.25471 10.6823 7.19549 10.4391C7.13627 10.1958 7.13541 9.94197 7.19297 9.69831C7.6099 8.53244 7.92344 7.33214 8.12997 6.11131C8.14989 5.91499 8.12741 5.71668 8.06406 5.52979C8.0007 5.3429 7.89794 5.17181 7.76274 5.02807C7.62754 4.88433 7.46304 4.77131 7.28038 4.69665C7.09772 4.62199 6.90115 4.58743 6.70397 4.59531C5.57497 4.59531 4.65897 5.71331 4.65897 7.21431C4.65203 7.76607 4.76747 8.31251 4.99697 8.81431C4.99697 8.81431 3.87997 13.3273 3.67197 14.1693C3.48215 15.4769 3.50985 16.8068 3.75397 18.1053C3.75643 18.1292 3.76615 18.1517 3.78183 18.1698C3.7975 18.188 3.81837 18.2008 3.84161 18.2067C3.86484 18.2126 3.88933 18.2112 3.91175 18.2028C3.93418 18.1943 3.95345 18.1791 3.96697 18.1593C4.7395 17.097 5.35858 15.9313 5.80597 14.6963C5.94397 14.1893 6.50597 12.1313 6.50597 12.1313C6.80436 12.5324 7.19617 12.8546 7.64736 13.0698C8.09856 13.285 8.59549 13.3868 9.09497 13.3663C12.495 13.3663 14.956 10.3763 14.956 6.66631C14.948 3.10731 11.903 0.445312 7.98397 0.445312Z" fill="white"/>
</svg>
