<svg width="19" height="16" viewBox="0 0 19 16" fill="none" xmlns="http://www.w3.org/2000/svg">
<path d="M6.05894 15.3548C7.48614 15.3647 8.90106 15.0908 10.2215 14.5492C11.542 14.0076 12.7417 13.2089 13.7509 12.1997C14.7601 11.1905 15.5587 9.99086 16.1003 8.6704C16.6419 7.34994 16.9158 5.93502 16.9059 4.50782C16.9059 4.34315 16.9023 4.17882 16.8949 4.01482C17.6404 3.47475 18.2837 2.80633 18.7949 2.04082C18.0994 2.34918 17.3615 2.55143 16.6059 2.64082C17.4023 2.16479 17.9986 1.41566 18.2839 0.532821C17.5355 0.976675 16.7167 1.2895 15.8629 1.45782C15.5059 1.07796 15.0747 0.775446 14.596 0.569031C14.1173 0.362616 13.6013 0.256692 13.0799 0.257821C12.0697 0.258086 11.1009 0.659242 10.3862 1.37321C9.67144 2.08717 9.26927 3.05559 9.26794 4.06582C9.26779 4.35837 9.30135 4.64996 9.36794 4.93482C7.85193 4.85909 6.36879 4.46534 5.01484 3.77915C3.66089 3.09296 2.4664 2.12966 1.50894 0.951821C1.17029 1.53352 0.992216 2.19473 0.992942 2.86782C0.992752 3.49587 1.14786 4.11422 1.44446 4.66781C1.74106 5.22141 2.16995 5.69308 2.69294 6.04082C2.08611 6.02335 1.49239 5.86008 0.961942 5.56482C0.961942 5.58082 0.961942 5.59682 0.961942 5.61382C0.962336 6.49391 1.26717 7.34677 1.82472 8.02772C2.38228 8.70868 3.15823 9.17579 4.02094 9.34982C3.69337 9.43887 3.3554 9.48394 3.01594 9.48382C2.77529 9.48364 2.53521 9.46054 2.29894 9.41482C2.54234 10.1724 3.01646 10.8349 3.65496 11.3097C4.29346 11.7845 5.0644 12.0478 5.85994 12.0628C4.50951 13.1228 2.84171 13.6977 1.12494 13.6948C0.821166 13.695 0.517643 13.6773 0.215942 13.6418C1.95908 14.7621 3.98788 15.3567 6.05994 15.3548" fill="white"/>
</svg>
