<svg width="19" height="14" viewBox="0 0 19 14" fill="none" xmlns="http://www.w3.org/2000/svg">
<path d="M15.299 0.136719H3.75301C3.29151 0.136588 2.83451 0.22739 2.40811 0.403938C1.98171 0.580487 1.59428 0.839322 1.26795 1.16565C0.941616 1.49198 0.682782 1.87942 0.506233 2.30581C0.329685 2.73221 0.238882 3.18922 0.239014 3.65072V9.89772C0.238882 10.3592 0.329685 10.8162 0.506233 11.2426C0.682782 11.669 0.941616 12.0565 1.26795 12.3828C1.59428 12.7091 1.98171 12.968 2.40811 13.1445C2.83451 13.321 3.29151 13.4119 3.75301 13.4117H15.298C15.7595 13.4119 16.2165 13.321 16.6429 13.1445C17.0693 12.968 17.4567 12.7091 17.7831 12.3828C18.1094 12.0565 18.3682 11.669 18.5448 11.2426C18.7213 10.8162 18.8121 10.3592 18.812 9.89772V3.65072C18.8121 3.1893 18.7214 2.73238 18.5449 2.30605C18.3684 1.87971 18.1097 1.49232 17.7834 1.16601C17.4572 0.839688 17.0699 0.580834 16.6436 0.404226C16.2173 0.227619 15.7604 0.136719 15.299 0.136719ZM7.07901 9.62572V3.92572L11.972 6.77872L7.07901 9.62572Z" fill="white"/>
</svg>
